M48
; DRILL file KiCad 10.0.6 date 2026-09-18T17:20:02
; FORMAT={-:-/ absolute / metric / decimal}
; #@! TF.CreationDate,2026-09-18T17:20:02+05:30
; #@! TF.GenerationSoftware,Kicad,Pcbnew,10.0.6
; #@! TF.FileFunction,Plated,1,2,PTH
FMAT,2
METRIC
; #@! TA.AperFunction,Plated,PTH,ComponentDrill
T1C0.400
; #@! TA.AperFunction,Plated,PTH,ComponentDrill
T2C0.800
; #@! TA.AperFunction,Plated,PTH,ComponentDrill
T3C1.300
; #@! TA.AperFunction,Plated,PTH,ComponentDrill
T4C2.200
%
G90
G05
T1
X80.35Y-121.5
X80.35Y-151.5
X80.833Y-120.333
X80.833Y-122.667
X80.833Y-150.333
X80.833Y-152.667
X82.0Y-119.85
X82.0Y-123.15
X82.0Y-149.85
X82.0Y-153.15
X83.167Y-120.333
X83.167Y-122.667
X83.167Y-150.333
X83.167Y-152.667
X83.65Y-121.5
X83.65Y-151.5
X127.35Y-121.5
X127.35Y-151.5
X127.833Y-120.333
X127.833Y-122.667
X127.833Y-150.333
X127.833Y-152.667
X129.0Y-119.85
X129.0Y-123.15
X129.0Y-149.85
X129.0Y-153.15
X130.167Y-120.333
X130.167Y-122.667
X130.167Y-150.333
X130.167Y-152.667
X130.65Y-121.5
X130.65Y-151.5
T2
X93.69Y-125.5
X101.31Y-125.5
X110.5Y-126.75
X110.5Y-130.25
X121.75Y-145.0
X125.25Y-145.0
T3
X84.828Y-131.955
X84.828Y-137.035
X126.5Y-131.965
X126.5Y-137.045
T4
X82.0Y-121.5
X82.0Y-151.5
X129.0Y-121.5
X129.0Y-151.5
M30
